{"title":"The Twilight Saga Breaking Dawn 2011 CAM XViD-DTRG","uid":6830345,"size":1053318854,"categoryP":"video","categoryS":"movies","magnet":"?xt=urn:btih:cf933a2ba694b4fb6a0b8c367f8a79611d5f20ea&amp;dn=The+Twilight+Saga+Breaking+Dawn+2011+CAM+XViD-DTRG&amp;tr=udp%3A%2F%2Ftracker.openbittorrent.com%3A80&amp;tr=udp%3A%2F%2Fopen.demonii.com%3A1337&amp;tr=udp%3A%2F%2Ftracker.coppersurfer.tk%3A6969&amp;tr=udp%3A%2F%2Fexodus.desync.com%3A6969","seeders":1,"leechers":0,"uploader":".BONE.","files":2,"time":1321865111,"description":"Format : AVI\nFormat/Info : Audio Video Interleave\nFile size : 996 MiB\nDuration : 1h 43mn\nOverall bit rate : 1 351 Kbps\nWriting library : VirtualDub build 32842/release\n\nVideo\nID : 0\nFormat : MPEG-4 Visual\nFormat profile : Advanced Simple@L5\nFormat settings, BVOP : 2\nFormat settings, QPel : No\nFormat settings, GMC : No warppoints\nFormat settings, Matrix : Default (H.263)\nMuxing mode : Packed bitstream\nCodec ID : XVID\nCodec ID/Hint : XviD\nDuration : 1h 43mn\nBit rate : 1 211 Kbps\nWidth : 720 pixels\nHeight : 278 pixels\nDisplay aspect ratio : 2.590\nFrame rate : 25.000 fps\nColor space : YUV\nChroma subsampling : 4:2:0\nBit depth : 8 bits\nScan type : Progressive\nCompression mode : Lossy\nBits/(Pixel*Frame) : 0.242\nStream size : 893 MiB (90%)\nWriting library : XviD 64\n\nAudio\nID : 1\nFormat : MPEG Audio\nFormat version : Version 1\nFormat profile : Layer 3\nCodec ID : 55\nCodec ID/Hint : MP3\nDuration : 1h 43mn\nBit rate mode : Constant\nBit rate : 128 Kbps\nChannel(s) : 2 channels\nSampling rate : 44.1 KHz\nCompression mode : Lossy\nStream size : 94.4 MiB (9%)\nAlignment : Aligned on interleaves\nInterleave, duration : 26 ms (0.65 video frame)\nInterleave, preload duration : 522 ms\n\n &lt;a href=&quot;\nhttp://www.imdb.com/title/tt1324999/&quot; rel=&quot;nofollow&quot; target=&quot;_NEW&quot;&gt;\nhttp://www.imdb.com/title/tt1324999/&lt;/a&gt;\n\n\nRatings: 4.2/10 from 8,546 users Metascore: 45/100\nReviews: 137 user | 66 critic | 31 from Metacritic.com\n\nThe Quileute and the Volturi close in on expecting parents Edward and Bella, whose unborn child poses different threats to the wolf pack and vampire coven.\nDirector:\nBill Condon\nWriters:\nMelissa Rosenberg (screenplay), Stephenie Meyer (novel)\nStars:\nKristen Stewart, Robert Pattinson and Taylor\n &lt;a href=&quot;\nhttp://img259.imageshack.us/img259/2465/vlcsnap2011112009h37m05.png&quot; rel=&quot;nofollow&quot; target=&quot;_NEW&quot;&gt;\nhttp://img259.imageshack.us/img259/2465/vlcsnap2011112009h37m05.png&lt;/a&gt;\n &lt;a href=&quot;\nhttp://img593.imageshack.us/img593/7445/vlcsnap2011112009h51m11.png&quot; rel=&quot;nofollow&quot; target=&quot;_NEW&quot;&gt;\nhttp://img593.imageshack.us/img593/7445/vlcsnap2011112009h51m11.png&lt;/a&gt;\n &lt;a href=&quot;\nhttp://img6.imageshack.us/img6/8137/vlcsnap2011112009h49m26.png&quot; rel=&quot;nofollow&quot; target=&quot;_NEW&quot;&gt;\nhttp://img6.imageshack.us/img6/8137/vlcsnap2011112009h49m26.png&lt;/a&gt;\n &lt;a href=&quot;\nhttp://img33.imageshack.us/img33/4854/vlcsnap2011112010h52m39.png&quot; rel=&quot;nofollow&quot; target=&quot;_NEW&quot;&gt;\nhttp://img33.imageshack.us/img33/4854/vlcsnap2011112010h52m39.png&lt;/a&gt;\n","torrent":{"xt":"urn:btih:cf933a2ba694b4fb6a0b8c367f8a79611d5f20ea","amp;dn":"The+Twilight+Saga+Breaking+Dawn+2011+CAM+XViD-DTRG","amp;tr":["udp%3A%2F%2Ftracker.openbittorrent.com%3A80","udp%3A%2F%2Fopen.demonii.com%3A1337","udp%3A%2F%2Ftracker.coppersurfer.tk%3A6969","udp%3A%2F%2Fexodus.desync.com%3A6969"],"infoHash":"cf933a2ba694b4fb6a0b8c367f8a79611d5f20ea","infoHashBuffer":{"type":"Buffer","data":[207,147,58,43,166,148,180,251,106,11,140,54,127,138,121,97,29,95,32,234]},"announce":[],"urlList":[]}}